<?xml version="1.0" encoding="UTF-8"?>
<!DOCTYPE svg PUBLIC "-//W3C//DTD SVG 1.1//EN"
"http://www.w3.org/Graphics/SVG/1.1/DTD/svg11-flat-20030114.dtd">
<svg xmlns="http://www.w3.org/2000/svg" width="100%" height="100%">
	<desc>
		<!-- put a description here -->
	</desc>
	<g>
		
		
		
		<rect x="10" y="10" width="421" height="421" rx="0"   />
		<rect x="2.2%" y="2.2%" width="419" height="419" rx="0" fill="white" />
		
		<rect x="29" y="10" width="401" height="402" rx="0"   />
		
		<text x="15" y="40" > 8</text>
		<text x="15" y="90" > 7</text>
		<text x="15" y="140" > 6</text>
		<text x="15" y="190" >5</text>
		<text x="15" y="240" >4</text>
		<text x="15" y="290" >3</text>
		<text x="15" y="340" >2</text>
		<text x="15" y="390" >1</text>
		
		<text x="45" y="427" > A</text>
		<text x="95" y="427" > B</text>
		<text x="145" y="427" >C</text>
		<text x="195" y="427" >D</text>
		<text x="245" y="427" >E</text>
		<text x="295" y="427" >F</text>
		<text x="345" y="427" >G</text>
		<text x="395" y="427" >H</text>
	
		<rect x="30" y="2.2%" width="12.5%" height="12.5%" rx="0"  fill="white" />
		<rect x="80" y="2.2%" width="12.5%" height="12.5%" rx="0"  fill="gray" />
		<rect x="130" y="2.2%" width="12.5%" height="12.5%" rx="0"  fill="white" />
		<rect x="180" y="2.2%" width="12.5%" height="12.5%" rx="0"   fill="gray" />
		<rect x="230" y="2.2%" width="12.5%" height="12.5%" rx="0"  fill="white" />
		<rect x="280" y="2.2%" width="12.5%" height="12.5%" rx="0"  fill="gray"   />
		<rect x="330" y="2.2%" width="12.5%" height="12.5%" rx="0"  fill="white" />
		<rect x="380" y="2.2%" width="12.5%" height="12.5%" rx="0"   fill="gray"  />
		
		<rect x="30" y="12.2%" width="12.5%" height="12.5%" rx="0"  fill="gray" />
		<rect x="80" y="12.2%" width="12.5%" height="12.5%" rx="0"   fill="white"  />
		<rect x="130" y="12.2%" width="12.5%" height="12.5%" rx="0"  fill="gray" />
		<rect x="180" y="12.2%" width="12.5%" height="12.5%" rx="0"  fill="white"  />
		<rect x="230" y="12.2%" width="12.5%" height="12.5%" rx="0"   fill="gray" />
		<rect x="280" y="12.2%" width="12.5%" height="12.5%" rx="0"   fill="white"  />
		<rect x="330" y="12.2%" width="12.5%" height="12.5%" rx="0"   fill="gray" />
		<rect x="380" y="12.2%" width="12.5%" height="12.5%" rx="0"   fill="white"  />
		
		<rect x="30" y="111" width="12.5%" height="12.5%" rx="0"  fill="white" />
		<rect x="80" y="111" width="12.5%" height="12.5%" rx="0"  fill="gray" />
		<rect x="130" y="111" width="12.5%" height="12.5%" rx="0"  fill="white" />
		<rect x="180" y="111" width="12.5%" height="12.5%" rx="0"   fill="gray" />
		<rect x="230" y="111" width="12.5%" height="12.5%" rx="0"  fill="white" />
		<rect x="280" y="111" width="12.5%" height="12.5%" rx="0"  fill="gray"   />
		<rect x="330" y="111" width="12.5%" height="12.5%" rx="0"  fill="white" />
		<rect x="380" y="111" width="12.5%" height="12.5%" rx="0"   fill="gray"  />
		
		<rect x="30" y="161" width="12.5%" height="12.5%" rx="0"  fill="gray" />
		<rect x="80" y="161" width="12.5%" height="12.5%" rx="0"   fill="white"  />
		<rect x="130" y="161" width="12.5%" height="12.5%" rx="0"  fill="gray" />
		<rect x="180" y="161" width="12.5%" height="12.5%" rx="0"  fill="white"  />
		<rect x="230" y="161" width="12.5%" height="12.5%" rx="0"   fill="gray" />
		<rect x="280" y="161" width="12.5%" height="12.5%" rx="0"   fill="white"  />
		<rect x="330" y="161" width="12.5%" height="12.5%" rx="0"   fill="gray" />
		<rect x="380" y="161" width="12.5%" height="12.5%" rx="0"   fill="white"  />
		
		<rect x="30" y="211" width="12.5%" height="12.5%" rx="0"  fill="white" />
		<rect x="80" y="211" width="12.5%" height="12.5%" rx="0"  fill="gray" />
		<rect x="130" y="211" width="12.5%" height="12.5%" rx="0"  fill="white" />
		<rect x="180" y="211" width="12.5%" height="12.5%" rx="0"   fill="gray" />
		<rect x="230" y="211" width="12.5%" height="12.5%" rx="0"  fill="white" />
		<rect x="280" y="211" width="12.5%" height="12.5%" rx="0"  fill="gray"   />
		<rect x="330" y="211" width="12.5%" height="12.5%" rx="0"  fill="white" />
		<rect x="380" y="211" width="12.5%" height="12.5%" rx="0"   fill="gray"  />
		
		<rect x="30" y="261" width="12.5%" height="12.5%" rx="0"  fill="gray" />
		<rect x="80" y="261" width="12.5%" height="12.5%" rx="0"   fill="white"  />
		<rect x="130" y="261" width="12.5%" height="12.5%" rx="0"  fill="gray" />
		<rect x="180" y="261" width="12.5%" height="12.5%" rx="0"  fill="white"  />
		<rect x="230" y="261" width="12.5%" height="12.5%" rx="0"   fill="gray" />
		<rect x="280" y="261" width="12.5%" height="12.5%" rx="0"   fill="white"  />
		<rect x="330" y="261" width="12.5%" height="12.5%" rx="0"   fill="gray" />
		<rect x="380" y="261" width="12.5%" height="12.5%" rx="0"   fill="white"  />
		
		<rect x="30" y="311" width="12.5%" height="12.5%" rx="0"  fill="white" />
		<rect x="80" y="311" width="12.5%" height="12.5%" rx="0"  fill="gray" />
		<rect x="130" y="311" width="12.5%" height="12.5%" rx="0"  fill="white" />
		<rect x="180" y="311" width="12.5%" height="12.5%" rx="0"   fill="gray" />
		<rect x="230" y="311" width="12.5%" height="12.5%" rx="0"  fill="white" />
		<rect x="280" y="311" width="12.5%" height="12.5%" rx="0"  fill="gray"   />
		<rect x="330" y="311" width="12.5%" height="12.5%" rx="0"  fill="white" />
		<rect x="380" y="311" width="12.5%" height="12.5%" rx="0"   fill="gray"  />
		
		<rect x="30" y="361" width="12.5%" height="12.5%" rx="0"  fill="gray" />
		<rect x="80" y="361" width="12.5%" height="12.5%" rx="0"   fill="white"  />
		<rect x="130" y="361" width="12.5%" height="12.5%" rx="0"  fill="gray" />
		<rect x="180" y="361" width="12.5%" height="12.5%" rx="0"  fill="white"  />
		<rect x="230" y="361" width="12.5%" height="12.5%" rx="0"   fill="gray" />
		<rect x="280" y="361" width="12.5%" height="12.5%" rx="0"   fill="white"  />
		<rect x="330" y="361" width="12.5%" height="12.5%" rx="0"   fill="gray" />
		<rect x="380" y="361" width="12.5%" height="12.5%" rx="0"   fill="white"  />
		
		
	</g>
</svg>
