<?xml version="1.0" encoding="UTF-8"?>
<!DOCTYPE svg PUBLIC "-//W3C//DTD SVG 1.1//EN"
"http://www.w3.org/Graphics/SVG/1.1/DTD/svg11-flat-20030114.dtd">
<svg xmlns="http://www.w3.org/2000/svg" width="100%" height="100%" viewBox="0 0 500 500" preserveAspectRatio="xMidYMid Slice">
	<desc>
		Un Echiquier
	</desc>
	<g>
		

		<rect x="2%" y="2%" width="84.2%" height="84.2%" rx="0"   />
		<rect x="2.2%" y="2.2%" width="83.8%" height="83.8%" rx="0" fill="white" />
		
		<rect x="5.8%" y="2%" width="80.2%" height="80.4%" rx="0"   />
		
		<text x="3%" y="8%" > 8</text>
		<text x="3%" y="18%" > 7</text>
		<text x="3%" y="28%" > 6</text>
		<text x="3%" y="38%" >5</text>
		<text x="3%" y="48%" >4</text>
		<text x="3%" y="58%" >3</text>
		<text x="3%" y="68%" >2</text>
		<text x="3%" y="78%" >1</text>
		
		<text x="9%" y="85.4%" > A</text>
		<text x="19%" y="85.4%" > B</text>
		<text x="29%" y="85.4%" >C</text>
		<text x="39%" y="85.4%" >D</text>
		<text x="49%" y="85.4%" >E</text>
		<text x="59%" y="85.4%" >F</text>
		<text x="69%" y="85.4%" >G</text>
		<text x="79%" y="85.4%" >H</text>
	
		<rect x="6%" y="2.2%" width="10%" height="10%" rx="0"  fill="white" />
		<rect x="16%" y="2.2%" width="10%" height="10%" rx="0"  fill="gray" />
		<rect x="26%" y="2.2%" width="10%" height="10%" rx="0"  fill="white" />
		<rect x="36%" y="2.2%" width="10%" height="10%" rx="0"   fill="gray" />
		<rect x="46%" y="2.2%" width="10%" height="10%" rx="0"  fill="white" />
		<rect x="56%" y="2.2%" width="10%" height="10%" rx="0"  fill="gray"   />
		<rect x="66%" y="2.2%" width="10%" height="10%" rx="0"  fill="white" />
		<rect x="76%" y="2.2%" width="10%" height="10%" rx="0"   fill="gray"  />
		
		<rect x="6%" y="12.2%" width="10%" height="10%" rx="0"  fill="gray" />
		<rect x="16%" y="12.2%" width="10%" height="10%" rx="0"   fill="white"  />
		<rect x="26%" y="12.2%" width="10%" height="10%" rx="0"  fill="gray" />
		<rect x="36%" y="12.2%" width="10%" height="10%" rx="0"  fill="white"  />
		<rect x="46%" y="12.2%" width="10%" height="10%" rx="0"   fill="gray" />
		<rect x="56%" y="12.2%" width="10%" height="10%" rx="0"   fill="white"  />
		<rect x="66%" y="12.2%" width="10%" height="10%" rx="0"   fill="gray" />
		<rect x="76%" y="12.2%" width="10%" height="10%" rx="0"   fill="white"  />
		
		<rect x="6%" y="22.2%" width="10%" height="10%" rx="0"  fill="white" />
		<rect x="16%" y="22.2%" width="10%" height="10%" rx="0"  fill="gray" />
		<rect x="26%" y="22.2%" width="10%" height="10%" rx="0"  fill="white" />
		<rect x="36%" y="22.2%" width="10%" height="10%" rx="0"   fill="gray" />
		<rect x="46%" y="22.2%" width="10%" height="10%" rx="0"  fill="white" />
		<rect x="56%" y="22.2%" width="10%" height="10%" rx="0"  fill="gray"   />
		<rect x="66%" y="22.2%" width="10%" height="10%" rx="0"  fill="white" />
		<rect x="76%" y="22.2%" width="10%" height="10%" rx="0"   fill="gray"  />
		
		<rect x="6%" y="32.2%" width="10%" height="10%" rx="0"  fill="gray" />
		<rect x="16%" y="32.2%" width="10%" height="10%" rx="0"   fill="white"  />
		<rect x="26%" y="32.2%" width="10%" height="10%" rx="0"  fill="gray" />
		<rect x="36%" y="32.2%" width="10%" height="10%" rx="0"  fill="white"  />
		<rect x="46%" y="32.2%" width="10%" height="10%" rx="0"   fill="gray" />
		<rect x="56%" y="32.2%" width="10%" height="10%" rx="0"   fill="white"  />
		<rect x="66%" y="32.2%" width="10%" height="10%" rx="0"   fill="gray" />
		<rect x="76%" y="32.2%" width="10%" height="10%" rx="0"   fill="white"  />
		
		<rect x="6%" y="42.2%" width="10%" height="10%" rx="0"  fill="white" />
		<rect x="16%" y="42.2%" width="10%" height="10%" rx="0"  fill="gray" />
		<rect x="26%" y="42.2%" width="10%" height="10%" rx="0"  fill="white" />
		<rect x="36%" y="42.2%" width="10%" height="10%" rx="0"   fill="gray" />
		<rect x="46%" y="42.2%" width="10%" height="10%" rx="0"  fill="white" />
		<rect x="56%" y="42.2%" width="10%" height="10%" rx="0"  fill="gray"   />
		<rect x="66%" y="42.2%" width="10%" height="10%" rx="0"  fill="white" />
		<rect x="76%" y="42.2%" width="10%" height="10%" rx="0"   fill="gray"  />
		
		<rect x="6%" y="52.2%" width="10%" height="10%" rx="0"  fill="gray" />
		<rect x="16%" y="52.2%" width="10%" height="10%" rx="0"   fill="white"  />
		<rect x="26%" y="52.2%" width="10%" height="10%" rx="0"  fill="gray" />
		<rect x="36%" y="52.2%" width="10%" height="10%" rx="0"  fill="white"  />
		<rect x="46%" y="52.2%" width="10%" height="10%" rx="0"   fill="gray" />
		<rect x="56%" y="52.2%" width="10%" height="10%" rx="0"   fill="white"  />
		<rect x="66%" y="52.2%" width="10%" height="10%" rx="0"   fill="gray" />
		<rect x="76%" y="52.2%" width="10%" height="10%" rx="0"   fill="white"  />
		
		<rect x="6%" y="62.2%" width="10%" height="10%" rx="0"  fill="white" />
		<rect x="16%" y="62.2%" width="10%" height="10%" rx="0"  fill="gray" />
		<rect x="26%" y="62.2%" width="10%" height="10%" rx="0"  fill="white" />
		<rect x="36%" y="62.2%" width="10%" height="10%" rx="0"   fill="gray" />
		<rect x="46%" y="62.2%" width="10%" height="10%" rx="0"  fill="white" />
		<rect x="56%" y="62.2%" width="10%" height="10%" rx="0"  fill="gray"   />
		<rect x="66%" y="62.2%" width="10%" height="10%" rx="0"  fill="white" />
		<rect x="76%" y="62.2%" width="10%" height="10%" rx="0"   fill="gray"  />
		
		<rect x="6%" y="72.2%" width="10%" height="10%" rx="0"  fill="gray" />
		<rect x="16%" y="72.2%" width="10%" height="10%" rx="0"   fill="white"  />
		<rect x="26%" y="72.2%" width="10%" height="10%" rx="0"  fill="gray" />
		<rect x="36%" y="72.2%" width="10%" height="10%" rx="0"  fill="white"  />
		<rect x="46%" y="72.2%" width="10%" height="10%" rx="0"   fill="gray" />
		<rect x="56%" y="72.2%" width="10%" height="10%" rx="0"   fill="white"  />
		<rect x="66%" y="72.2%" width="10%" height="10%" rx="0"   fill="gray" />
		<rect x="76%" y="72.2%" width="10%" height="10%" rx="0"   fill="white"  />
		
		
	</g>
</svg>
